/vscmnt/brussel_pixiu_data/_data_brussel/112/vsc11236/PredSimResults/SUBJ11opt3D/expIG/worker_03.mot
version=1
nRows=4
nColumns=50
inDegrees=yes
endheader
                time	         pelvis_tilt	         pelvis_list	     pelvis_rotation	           pelvis_tx	           pelvis_ty	           pelvis_tz	       hip_flexion_r	     hip_adduction_r	      hip_rotation_r	        knee_angle_r	       ankle_angle_r	         mtp_angle_r	       hip_flexion_l	     hip_adduction_l	      hip_rotation_l	        knee_angle_l	       ankle_angle_l	         mtp_angle_l	    lumbar_extension	      lumbar_bending	     lumbar_rotation	 ercspn_r/activation	 intobl_r/activation	 extobl_r/activation	    abd_r/activation	    add_r/activation	hamstrings_r/activation	bifemsh_r/activation	glut_max_r/activation	iliopsoas_r/activation	rect_fem_r/activation	  vasti_r/activation	gastroc_r/activation	 soleus_r/activation	tib_ant_r/activation	 ercspn_l/activation	 intobl_l/activation	 extobl_l/activation	    abd_l/activation	    add_l/activation	hamstrings_l/activation	bifemsh_l/activation	glut_max_l/activation	iliopsoas_l/activation	rect_fem_l/activation	  vasti_l/activation	gastroc_l/activation	 soleus_l/activation	tib_ant_l/activation	
          1.61537418	         -2.23698031	          0.10156908	          4.12443069	          1.29229935	          0.95081931	         -0.00954044	         28.77903954	         -2.71918630	         -2.57995205	        -10.20612701	          0.30773215	          0.22851074	        -11.01056806	         -1.66695965	         -5.37475972	        -12.48005711	         13.85451598	         24.27288587	        -15.01633808	         -4.07060149	         -3.05793962	          0.01269227	          0.22123665	          0.07507600	          0.00999999	          0.15600525	          0.00999999	          0.09383951	          0.05664043	          0.08547903	          0.04860327	          0.01843788	          0.00999999	          0.00999999	          0.33517644	          0.01000000	          0.00999999	          0.00999999	          0.05078516	          0.01269228	          0.01255799	          0.12844945	          0.01692966	          0.04308286	          0.01000001	          0.00999999	          0.12909437	          0.28759384	          0.01274745	
          1.63152793	         -2.42151600	          0.12143074	          3.97645427	          1.30882760	          0.94857276	         -0.00724339	         28.28576608	         -2.49307818	         -2.61289197	        -10.66904029	         -0.19401290	          0.20119400	        -11.52376431	         -1.82672034	         -5.94005088	        -13.08695896	         13.44244249	         25.75429767	        -14.60433407	         -3.59887421	         -3.33378937	          0.00999999	          0.21955939	          0.05915087	          0.01653601	          0.12291340	          0.03346621	          0.07393426	          0.06052337	          0.06734721	          0.03829354	          0.01452684	          0.01269228	          0.01269228	          0.37292489	          0.00999999	          0.00999999	          0.01269232	          0.04001261	          0.01000000	          0.01494963	          0.10120273	          0.02223031	          0.03394411	          0.00999999	          0.01000000	          0.10490358	          0.27601125	          0.01004346	
          1.64768167	         -2.58688529	          0.11142515	          3.80472022	          1.32576719	          0.94679440	         -0.00484727	         27.79534386	         -2.27547218	         -2.72392821	        -11.18368595	         -0.92864815	          0.19508370	        -11.94006838	         -2.03471132	         -6.52390802	        -13.91511443	         12.83861103	         27.32575036	        -14.15737270	         -3.07635515	         -3.60705443	          0.01472302	          0.17298642	          0.04660378	          0.05273894	          0.15351679	          0.04292577	          0.05825132	          0.05516055	          0.05306151	          0.03017071	          0.04028663	          0.00999999	          0.00999999	          0.43128742	          0.00999999	          0.00999999	          0.01000002	          0.03152513	          0.00999999	          0.01177851	          0.07973560	          0.01751481	          0.02674388	          0.01136743	          0.00999999	          0.08265142	          0.25867665	          0.00999999	
          1.66383541	         -2.73297360	          0.09420654	          3.60418107	          1.34286571	          0.94572853	         -0.00235360	         27.39297282	         -2.07288310	         -2.93420851	        -11.86858053	         -1.68838353	          0.15556276	        -12.16302355	         -2.27629473	         -7.11343193	        -15.09231237	         11.97980030	         29.01868141	        -13.70715675	         -2.53375500	         -3.87279933	          0.01610939	          0.13629252	          0.03671818	          0.07590244	          0.16438421	          0.04829488	          0.04589504	          0.04345989	          0.04180609	          0.02377089	          0.09355175	          0.00999999	          0.00999999	          0.47174653	          0.01511383	          0.00999999	          0.00999999	          0.02483801	          0.00999999	          0.01810692	          0.06282207	          0.01500961	          0.02107097	          0.00999999	          0.01898214	          0.06511939	          0.23501807	          0.00999999	
